HIERARCHY
ROOT Hips
{
    OFFSET 0.000000 0.000000 0.000000
    CHANNELS 6 Xposition Yposition Zposition Zrotation Xrotation Yrotation
    JOINT Spine
    {
        OFFSET -0.000000 14.517291 0.000000
        CHANNELS 3 Zrotation Xrotation Yrotation
        JOINT Spine1
        {
            OFFSET -0.000000 37.558300 0.000000
            CHANNELS 3 Zrotation Xrotation Yrotation
            JOINT Neck
            {
                OFFSET -0.000000 37.404057 3.400369
                CHANNELS 3 Zrotation Xrotation Yrotation
                JOINT Head
                {
                    OFFSET -0.000000 24.785618 -3.540803
                    CHANNELS 3 Zrotation Xrotation Yrotation
                    End Site
                    {
                        OFFSET -0.000000 35.408028 0.000000
                    }
                }
            }
            JOINT LeftShoulder
            {
                OFFSET 6.992933 33.973492 -0.192664
                CHANNELS 3 Zrotation Xrotation Yrotation
                JOINT LeftArm
                {
                    OFFSET 21.527611 0.000000 0.000000
                    CHANNELS 3 Zrotation Xrotation Yrotation
                    JOINT LeftForeArm
                    {
                        OFFSET 56.353916 0.000000 0.000000
                        CHANNELS 3 Zrotation Xrotation Yrotation
                        JOINT LeftHand
                        {
                            OFFSET 47.774071 0.000000 0.000000
                            CHANNELS 3 Zrotation Xrotation Yrotation
                            End Site
                            {
                                OFFSET 26.556021 0.000000 0.000000
                            }
                        }
                    }
                }
            }
            JOINT RightShoulder
            {
                OFFSET -7.065357 33.973492 -0.192664
                CHANNELS 3 Zrotation Xrotation Yrotation
                JOINT RightArm
                {
                    OFFSET -21.527611 0.000000 0.000000
                    CHANNELS 3 Zrotation Xrotation Yrotation
                    JOINT RightForeArm
                    {
                        OFFSET -56.353916 0.000000 0.000000
                        CHANNELS 3 Zrotation Xrotation Yrotation
                        JOINT RightHand
                        {
                            OFFSET -47.774071 0.000000 0.000000
                            CHANNELS 3 Zrotation Xrotation Yrotation
                            End Site
                            {
                                OFFSET -26.556021 0.000000 0.000000
                            }
                        }
                    }
                }
            }
        }
    }
    JOINT LeftUpLeg
    {
        OFFSET 17.704014 0.000000 0.000000
        CHANNELS 3 Zrotation Xrotation Yrotation
        JOINT LeftLeg
        {
            OFFSET -0.000000 -81.181816 0.000000
            CHANNELS 3 Zrotation Xrotation Yrotation
            JOINT LeftFoot
            {
                OFFSET -0.000000 -62.821102 0.000000
                CHANNELS 3 Zrotation Xrotation Yrotation
                JOINT LeftToeBase
                {
                    OFFSET -0.000000 -11.507608 26.556021
                    CHANNELS 3 Zrotation Xrotation Yrotation
                    End Site
                    {
                        OFFSET -0.000000 0.000000 7.081605
                    }
                }
            }
        }
    }
    JOINT RightUpLeg
    {
        OFFSET -17.704014 0.000000 0.000000
        CHANNELS 3 Zrotation Xrotation Yrotation
        JOINT RightLeg
        {
            OFFSET -0.000000 -81.181816 0.000000
            CHANNELS 3 Zrotation Xrotation Yrotation
            JOINT RightFoot
            {
                OFFSET -0.000000 -62.821102 0.000000
                CHANNELS 3 Zrotation Xrotation Yrotation
                JOINT RightToeBase
                {
                    OFFSET -0.000000 -11.507608 26.556021
                    CHANNELS 3 Zrotation Xrotation Yrotation
                    End Site
                    {
                        OFFSET -0.000000 0.000000 7.081605
                    }
                }
            }
        }
    }
}
MOTION
Frames:    12
Frame Time:    0.008333
-10.079917    152.779999    -26.060099    -1.035066    0.429345    -6.999926    0.342660    1.959298    11.499645    0.284220    0.858536    3.833820    1.243984    0.277318    -4.094167    6.896558    -3.002955    -3.282184    -1.405388    5.916839    -6.611456    -42.842674    17.275988    -34.866661    1.166910    -29.753405    -127.090401    -6.499448    -27.144382    -10.924478    -2.211750    11.405468    3.229678    37.809616    9.712356    60.545971    -26.055696    -27.558432    61.480255    11.751139    -9.241507    33.376011    3.065835    -31.514425    -31.110321    -11.695642    35.893032    -29.431067    -3.501860    -11.761847    27.058741    0.000000    0.000000    0.000000    -3.580763    14.116323    -12.525652    2.752316    17.892502    -3.663403    5.923735    -27.167994    -2.987659    0.000000    0.000000    0.000000    
-10.098921    152.772018    -26.041327    -1.035957    0.407856    -6.997780    0.326158    1.960043    11.507318    0.309016    0.870754    3.836064    1.236480    0.277660    -4.101433    6.897504    -3.005975    -3.288296    -1.421111    5.903654    -6.616702    -42.848057    17.261553    -34.820469    1.152750    -29.734156    -127.100220    -6.488469    -27.151377    -10.908463    -2.222126    11.417528    3.228654    37.820511    9.711687    60.552425    -26.061203    -27.560637    61.493725    11.744516    -9.239270    33.365982    3.068105    -31.495829    -31.121977    -11.714211    35.908493    -29.416962    -3.469806    -11.766744    27.051418    0.000000    0.000000    0.000000    -3.574752    14.129683    -12.539092    2.741359    17.921518    -3.660923    5.914001    -27.172338    -2.983602    0.000000    0.000000    0.000000    
-10.118476    152.763107    -26.027456    -1.027785    0.388893    -6.997028    0.309812    1.966219    11.516010    0.303612    0.886658    3.838874    1.250578    0.273903    -4.104655    6.897765    -3.034188    -3.292047    -1.408031    5.892128    -6.614843    -42.866539    17.236715    -34.790543    1.143581    -29.703501    -127.107864    -6.491357    -27.135981    -10.899167    -2.206813    11.416766    3.216826    37.828415    9.710671    60.562737    -26.062775    -27.552874    61.511253    11.736298    -9.227180    33.360332    3.062185    -31.482866    -31.130812    -11.725492    35.929459    -29.424681    -3.465376    -11.787611    27.066992    0.000000    0.000000    0.000000    -3.578233    14.142838    -12.539554    2.735762    17.941349    -3.688663    5.929739    -27.178402    -2.946676    0.000000    0.000000    0.000000    
-10.137802    152.756714    -26.009863    -1.021424    0.374908    -6.991776    0.290534    1.962240    11.517583    0.318892    0.903488    3.839117    1.237115    0.271693    -4.114501    6.915217    -3.051131    -3.296418    -1.422194    5.887300    -6.615742    -42.879021    17.194941    -34.744823    1.111667    -29.653444    -127.130829    -6.474751    -27.143122    -10.884962    -2.216921    11.425904    3.224556    37.832783    9.716321    60.566799    -26.071850    -27.572262    61.529724    11.733463    -9.238755    33.353474    3.057096    -31.467009    -31.135050    -11.720631    35.934532    -29.444674    -3.461402    -11.802720    27.059202    0.000000    0.000000    0.000000    -3.577432    14.152103    -12.550392    2.728895    17.962538    -3.687886    5.933896    -27.179768    -2.949810    0.000000    0.000000    0.000000    
-10.159144    152.750977    -25.998058    -1.011223    0.366468    -6.983627    0.261304    1.960842    11.520373    0.338770    0.911290    3.839698    1.227965    0.273162    -4.114464    6.923600    -3.081951    -3.291790    -1.431379    5.881355    -6.621514    -42.898754    17.171400    -34.691090    1.186840    -29.613848    -127.059151    -6.437607    -26.964838    -11.071134    -2.220258    11.439105    3.217742    37.839741    9.722988    60.581585    -26.083668    -27.590664    61.541698    11.770102    -9.235636    33.366302    3.050381    -31.460630    -31.144928    -11.734412    35.943520    -29.442572    -3.452750    -11.814724    27.073507    0.000000    0.000000    0.000000    -3.578589    14.149657    -12.585865    2.709762    17.996532    -3.686631    5.956706    -27.182428    -2.912572    0.000000    0.000000    0.000000    
-10.180807    152.748398    -25.984278    -1.005422    0.358584    -6.980707    0.251023    1.955699    11.521694    0.329035    0.938399    3.840062    1.219815    0.261464    -4.120157    6.956408    -3.110010    -3.289423    -1.416829    5.863476    -6.613648    -42.920506    17.154488    -34.658314    1.173087    -29.593548    -127.066956    -6.448217    -26.966604    -11.082697    -2.209487    11.433335    3.212851    37.841686    9.736458    60.595585    -26.091402    -27.608929    61.558178    11.761773    -9.248307    33.367237    3.049276    -31.449202    -31.129986    -11.729233    35.952019    -29.459629    -3.456408    -11.828617    27.088610    0.000000    0.000000    0.000000    -3.574365    14.149763    -12.592825    2.693862    18.019491    -3.694199    5.975007    -27.179218    -2.894858    0.000000    0.000000    0.000000    
-10.201676    152.746582    -25.972664    -0.999046    0.355834    -6.971693    0.240274    1.949193    11.518843    0.332602    0.958751    3.838961    1.204839    0.265730    -4.137657    6.964996    -3.155858    -3.301242    -1.427103    5.856576    -6.607473    -42.915546    17.157719    -34.625359    1.165675    -29.608315    -127.071419    -6.454706    -26.994352    -11.082583    -2.223505    11.437024    3.207994    37.862202    9.747483    60.619469    -26.105568    -27.610861    61.566605    11.761233    -9.240335    33.355129    3.047126    -31.445637    -31.129206    -11.729127    35.954731    -29.465933    -3.445168    -11.828196    27.078354    0.000000    0.000000    0.000000    -3.572654    14.147343    -12.616528    2.685572    18.042183    -3.648742    5.959460    -27.182554    -2.933509    0.000000    0.000000    0.000000    
-10.220948    152.745621    -25.962627    -0.989953    0.360307    -6.966164    0.226346    1.943844    11.522292    0.336075    0.955221    3.839993    1.176960    0.279217    -4.150095    7.000750    -3.182365    -3.302316    -1.434495    5.855538    -6.616310    -42.923859    17.152758    -34.582520    1.149856    -29.600178    -127.075523    -6.432032    -27.016485    -11.076646    -2.231004    11.458130    3.209975    37.863808    9.759983    60.627102    -26.127211    -27.633387    61.574398    11.775997    -9.245335    33.351105    3.042166    -31.447227    -31.106184    -11.703740    35.961872    -29.499565    -3.453519    -11.834527    27.069719    0.000000    0.000000    0.000000    -3.572515    14.136040    -12.634651    2.676785    18.060556    -3.635607    5.973676    -27.177681    -2.936323    0.000000    0.000000    0.000000    
-10.239877    152.745743    -25.952097    -0.986568    0.363455    -6.959229    0.221080    1.940932    11.520796    0.334781    0.955189    3.839489    1.173441    0.278952    -4.154441    6.993053    -3.199593    -3.306636    -1.440017    5.863935    -6.607642    -42.916344    17.174267    -34.566048    1.166206    -29.648109    -127.056358    -6.458792    -27.033623    -11.101124    -2.233567    11.461110    3.212425    37.868153    9.771547    60.633282    -26.128395    -27.634960    61.588642    11.756565    -9.249402    33.335411    3.050813    -31.447134    -31.127188    -11.734992    35.950470    -29.456467    -3.456176    -11.839050    27.058769    0.000000    0.000000    0.000000    -3.564473    14.133033    -12.656541    2.660507    18.067120    -3.623039    5.980481    -27.164595    -2.933003    0.000000    0.000000    0.000000    
-10.258894    152.747482    -25.944775    -0.983569    0.371672    -6.948658    0.225010    1.932225    11.517640    0.323699    0.969107    3.838495    1.163037    0.269933    -4.157382    6.992739    -3.221448    -3.307008    -1.445102    5.859624    -6.595602    -42.909149    17.180155    -34.553089    1.167130    -29.664068    -127.046539    -6.461620    -27.048018    -11.112679    -2.243921    11.464290    3.200078    37.873276    9.788112    60.661816    -26.134659    -27.639706    61.591690    11.748174    -9.252192    33.335724    3.052885    -31.454418    -31.127548    -11.739471    35.951908    -29.453697    -3.438454    -11.823675    27.061235    0.000000    0.000000    0.000000    -3.552036    14.130385    -12.679245    2.646591    18.057587    -3.643441    6.012888    -27.145323    -2.895250    0.000000    0.000000    0.000000    
-10.277357    152.749222    -25.938023    -0.978741    0.382677    -6.937538    0.227789    1.923978    11.516467    0.313143    0.971120    3.838195    1.164367    0.263289    -4.160741    6.976935    -3.229454    -3.312988    -1.454840    5.845631    -6.596167    -42.910156    17.198837    -34.518703    1.191667    -29.689655    -127.024292    -6.463089    -27.030937    -11.117759    -2.253768    11.468898    3.195434    37.879471    9.809780    60.677532    -26.159304    -27.638428    61.582729    11.726998    -9.246888    33.313652    3.056847    -31.462097    -31.125427    -11.737698    35.942745    -29.458296    -3.453937    -11.827521    27.044060    0.000000    0.000000    0.000000    -3.545955    14.129319    -12.695997    2.648147    18.042908    -3.657985    6.020682    -27.132631    -2.880960    0.000000    0.000000    0.000000    
-10.295282    152.750092    -25.934673    -0.971574    0.394149    -6.923573    0.231715    1.915322    11.509323    0.298064    0.973635    3.835936    1.149846    0.268331    -4.164898    6.980998    -3.240315    -3.313794    -1.457015    5.850054    -6.594073    -42.908318    17.208139    -34.504856    1.191129    -29.710905    -127.018784    -6.446710    -27.055563    -11.111356    -2.263270    11.475663    3.191043    37.876930    9.823404    60.702885    -26.156599    -27.643425    61.573841    11.736564    -9.251447    33.337910    3.054389    -31.473373    -31.118225    -11.728371    35.942913    -29.468569    -3.453419    -11.814908    27.028461    0.000000    0.000000    0.000000    -3.536520    14.129844    -12.723327    2.636898    18.021534    -3.661065    6.034516    -27.121553    -2.862349    0.000000    0.000000    0.000000    
